Format : AVI
Format/Info : Audio Video Interleave
File size : 1.44 GiB
Duration : 1h 39mn
Overall bit rate : 2 064 Kbps
Writing library : VirtualDub build 32839/release

Video
ID : 0
Format : MPEG-4 Visual
Format profile : Advanced Simple@L5
Format settings, BVOP : Yes
Format settings, QPel : No
Format settings, GMC : No warppoints
Format settings, Matrix : Custom
Codec ID : XVID
Codec ID/Hint : XviD
Duration : 1h 39mn
Bit rate : 1 926 Kbps
Width : 656 pixels
Height : 368 pixels
Display aspect ratio : 16:9
Frame rate : 25.000 fps
Color space : YUV
Chroma subsampling : 4:2:0
Bit depth : 8 bits
Scan type : Progressive
Bits/(Pixel*Frame) : 0.319
Stream size : 1.34 GiB (93%)
Writing library : XviD 1.2.1 (UTC 2008-12-04)

Audio
ID : 1
Format : MPEG Audio
Format version : Version 1
Format profile : Layer 3
Codec ID : 55
Codec ID/Hint : MP3
Duration : 1h 39mn
Bit rate mode : Constant
Bit rate : 128 Kbps
Channel(s) : 2 channels
Sampling rate : 44.1 KHz
Stream size : 91.3 MiB (6%)
Alignment : Split accross interleaves
Interleave, duration : 40 ms (1.00 video frame)
Interleave, preload duration : 500 ms




 
http://www.imdb.com/title/tt1464174/







Users: 3.0/10 (594 votes) 3 reviews | Critics: 10 reviews Metascore: 33/100 (based on 7 reviews from Metacritic.com)

FBI agent Malcolm Turner and his stepson Trent go undercover at an all-girls performing arts school after Trent witnesses a murder.
Director:
John Whitesell
Writers:
Matthew Fogel (screenplay), Don Rhymer (story), and 2 more credits »
Stars:
Martin Lawrence, Brandon T. Jackson and Jessica Lucas
